<?xml version="1.0" encoding="UTF-8" standalone="no"?>
<!-- Created with Inkscape (http://www.inkscape.org/) -->

<svg
   width="704"
   height="128"
   viewBox="0 0 186.26667 33.866666"
   version="1.1"
   id="svg5"
   inkscape:version="1.2.2 (b0a8486541, 2022-12-01)"
   sodipodi:docname="subnodal.svg"
   xmlns:inkscape="http://www.inkscape.org/namespaces/inkscape"
   xmlns:sodipodi="http://sodipodi.sourceforge.net/DTD/sodipodi-0.dtd"
   xmlns="http://www.w3.org/2000/svg"
   xmlns:svg="http://www.w3.org/2000/svg">
  <sodipodi:namedview
     id="namedview7"
     pagecolor="#ffffff"
     bordercolor="#ffffff"
     borderopacity="1"
     inkscape:showpageshadow="0"
     inkscape:pageopacity="0"
     inkscape:pagecheckerboard="1"
     inkscape:deskcolor="#505050"
     inkscape:document-units="px"
     showgrid="false"
     inkscape:zoom="1.34"
     inkscape:cx="326.49254"
     inkscape:cy="93.283582"
     inkscape:window-width="2256"
     inkscape:window-height="1424"
     inkscape:window-x="0"
     inkscape:window-y="48"
     inkscape:window-maximized="1"
     inkscape:current-layer="layer1" />
  <defs
     id="defs2" />
  <g
     inkscape:label="Layer 1"
     inkscape:groupmode="layer"
     id="layer1">
    <g
       aria-label="{subnodal}"
       id="text236"
       style="font-size:29.8122px;fill:#404040;stroke-width:2.48434">
      <path
         d="m 14.339794,29.63333 q -2.71291,-0.05962 -4.322769,-1.818544 -1.5800464,-1.75892 -1.5800464,-5.097887 v -1.639671 q 0,-1.311736 -0.5366196,-2.116666 -0.5366196,-0.804929 -1.4607978,-0.804929 h -0.596244 v -2.176291 h 0.596244 q 0.9241782,0 1.4607978,-0.804929 0.5366196,-0.80493 0.5366196,-2.116667 v -1.609858 q 0,-3.3389669 1.5800464,-5.0978867 1.609859,-1.7887321 4.322769,-1.8185443 h 0.80493 v 2.2061029 h -0.80493 q -1.639671,0.029812 -2.504225,1.1030514 -0.834741,1.0732392 -0.834741,3.0408447 v 1.788732 q 0,2.295539 -0.715493,3.24953 -0.7154927,0.924178 -2.235915,1.103051 v 0.119249 q 1.5502345,0.208685 2.235915,1.103051 0.715493,0.894366 0.715493,3.24953 v 1.788732 q 0,1.967605 0.834741,3.040845 0.864554,1.103051 2.504225,1.103051 h 0.80493 v 2.206103 z"
         style="font-family:'Overpass Mono';-inkscape-font-specification:'Overpass Mono'"
         id="path975" />
      <path
         d="m 28.947749,26.11549 q -1.937793,0 -3.577464,-0.715493 -1.639671,-0.745305 -2.623473,-1.997417 l 2.235915,-2.02723 q 1.878168,1.818545 4.143895,1.818545 1.103052,0 1.818545,-0.387559 0.715492,-0.387559 0.715492,-1.162676 0,-0.447183 -0.447183,-0.834741 -0.41737,-0.417371 -0.983802,-0.685681 -0.566432,-0.26831 -1.669483,-0.715493 -0.119249,-0.05962 -0.208686,-0.08944 -0.05962,-0.02981 -0.178873,-0.05963 -0.119249,-0.05962 -0.208685,-0.08944 -1.103052,-0.476996 -1.639671,-0.715493 -0.53662,-0.26831 -1.311737,-0.715493 -0.745305,-0.476995 -1.103052,-0.894366 -0.327934,-0.417371 -0.596244,-1.043427 -0.268309,-0.655869 -0.268309,-1.460798 0,-1.937793 1.669483,-3.040844 1.669483,-1.132864 4.20352,-1.132864 3.547652,0 5.69413,2.414788 l -2.295539,1.878169 q -1.639671,-1.371361 -3.51784,-1.371361 -1.162676,0 -1.878168,0.357746 -0.685681,0.327934 -0.685681,0.95399 0,0.298122 0.238498,0.596244 0.238497,0.26831 0.834741,0.596244 0.596244,0.298122 0.983803,0.476996 0.387558,0.149061 1.311737,0.506807 2.742722,1.103051 3.637088,1.788732 1.580047,1.252113 1.609859,3.24953 0,2.116666 -1.609859,3.309154 -1.580047,1.192488 -4.292957,1.192488 z"
         style="font-weight:bold"
         id="path977" />
      <path
         d="m 46.20899,26.11549 q -2.534037,0 -4.114084,-1.49061 -1.550234,-1.520422 -1.550234,-4.829576 v -9.271595 h 3.428403 v 8.52629 q 0,3.786149 3.130281,3.786149 3.368779,0 3.368779,-3.726525 v -8.585914 h 3.428403 V 25.757744 H 50.472135 V 24.296946 Q 49.011337,26.11549 46.20899,26.11549 Z"
         style="font-weight:bold"
         id="path979" />
      <path
         d="m 66.332202,26.11549 q -2.504225,0 -3.875586,-1.520422 v 1.162676 H 59.028213 V 5.8133817 L 62.456616,4.233335 v 7.482862 q 0.626056,-0.68568 1.699295,-1.103051 1.103052,-0.447183 2.235915,-0.447183 2.861972,0 4.650704,2.146478 1.788732,2.146479 1.788732,5.813379 0,3.815962 -1.729108,5.902816 -1.729108,2.086854 -4.769952,2.086854 z m -0.53662,-3.279342 q 1.75892,0 2.653286,-1.2223 0.924178,-1.252112 0.924178,-3.488028 0,-2.295539 -0.924178,-3.488027 -0.894366,-1.2223 -2.653286,-1.2223 -1.132863,0 -2.027229,0.476995 -0.864554,0.447183 -1.311737,1.043427 v 6.409623 q 1.103051,1.49061 3.338966,1.49061 z"
         style="font-weight:bold"
         id="path981" />
      <path
         d="m 85.024428,10.165963 q 2.504225,0 4.05446,1.520422 1.580046,1.49061 1.580046,4.769952 v 9.301407 H 87.230531 V 17.17183 q 0,-1.967605 -0.864554,-2.861971 -0.864554,-0.894366 -2.295539,-0.894366 -3.368779,0 -3.368779,3.696713 v 8.645538 H 77.273256 V 10.523709 h 3.160093 v 1.878169 q 0.447183,-0.894366 1.729108,-1.550234 1.311737,-0.685681 2.861971,-0.685681 z"
         style="font-weight:bold"
         id="path983" />
      <path
         d="m 102.31548,26.11549 q -3.368781,0 -5.336387,-2.116666 -1.967605,-2.146478 -1.967605,-5.843191 0,-3.666901 1.967605,-5.813379 1.967606,-2.176291 5.336387,-2.176291 3.39859,0 5.33638,2.176291 1.96761,2.146478 1.96761,5.813379 0,3.6669 -1.96761,5.813379 -1.93779,2.146478 -5.33638,2.146478 z m 0,-3.279342 q 1.84835,0 2.83216,-1.252112 1.01361,-1.252113 1.01361,-3.428403 0,-2.176291 -1.01361,-3.458216 -0.98381,-1.281924 -2.83216,-1.281924 -1.81855,0 -2.832162,1.281924 -1.013614,1.281925 -1.013614,3.458216 0,2.146478 1.013614,3.428403 1.013612,1.252112 2.832162,1.252112 z"
         style="font-weight:bold"
         id="path985" />
      <path
         d="m 120.14315,26.11549 q -3.13028,0 -4.91901,-2.086854 -1.78873,-2.116666 -1.78873,-5.902816 0,-3.6669 1.81854,-5.813379 1.84836,-2.146478 4.79977,-2.146478 2.4446,0 3.78615,1.460798 V 5.8133817 l 3.4284,-1.5800467 v 21.524409 h -3.4284 v -1.162676 q -0.477,0.626056 -1.49061,1.073239 -0.98381,0.447183 -2.20611,0.447183 z m 0.477,-3.279342 q 2.23591,0 3.21972,-1.49061 v -6.439435 q -1.07324,-1.49061 -3.27935,-1.49061 -1.75892,0 -2.71291,1.2223 -0.95399,1.2223 -0.95399,3.488027 0,2.146479 0.95399,3.428404 0.98381,1.281924 2.77254,1.281924 z"
         style="font-weight:bold"
         id="path987" />
      <path
         d="m 137.88139,26.11549 q -2.50422,0 -4.08427,-1.311737 -1.55023,-1.311736 -1.55023,-3.756337 0,-2.474412 1.78873,-3.756337 1.78873,-1.281925 4.29296,-1.281925 2.17629,0 3.78615,0.80493 v -0.894366 q 0,-2.742723 -3.01104,-2.742723 -2.50422,0 -4.82957,1.550235 l -1.04343,-2.802347 q 2.77253,-1.75892 6.17113,-1.75892 6.05187,0 6.05187,5.723942 v 9.867839 h -3.33896 v -1.192488 q -1.60986,1.550234 -4.23334,1.550234 z m 0.62606,-3.011032 q 2.14648,0 3.60728,-1.520422 v -1.967605 q -1.37137,-0.685681 -3.24953,-0.685681 -1.43099,0 -2.38498,0.53662 -0.92418,0.536619 -0.92418,1.580046 0,0.924178 0.77512,1.49061 0.77512,0.566432 2.17629,0.566432 z"
         style="font-weight:bold"
         id="path989" />
      <path
         d="m 159.10765,22.746712 h 4.44202 v 3.011032 h -12.31244 v -3.011032 h 4.44202 V 7.2443673 H 152.1316 L 150.55155,4.233335 h 8.5561 z"
         style="font-weight:bold"
         id="path991" />
      <path
         d="m 171.12194,29.63333 v -2.206103 h 0.80493 q 1.63967,0 2.47441,-1.103051 0.86456,-1.07324 0.86456,-3.040845 v -1.788732 q 0,-2.355164 0.68568,-3.24953 0.71549,-0.894366 2.26573,-1.103051 v -0.119249 q -1.49061,-0.178873 -2.23592,-1.103051 -0.71549,-0.953991 -0.71549,-3.24953 v -1.788732 q 0,-1.9676055 -0.86456,-3.0408447 -0.83474,-1.0732392 -2.47441,-1.1030514 h -0.80493 V 4.531457 h 0.80493 q 2.74272,0.029812 4.32277,1.8185443 1.58005,1.7589198 1.58005,5.0978867 v 1.609858 q 0,1.311737 0.53662,2.116667 0.53662,0.804929 1.4608,0.804929 h 0.59624 v 2.176291 h -0.59624 q -0.92418,0 -1.4608,0.804929 -0.53662,0.80493 -0.53662,2.116666 v 1.639671 q 0,3.338967 -1.58005,5.097887 -1.58005,1.75892 -4.32277,1.818544 z"
         style="font-family:'Overpass Mono';-inkscape-font-specification:'Overpass Mono'"
         id="path993" />
    </g>
  </g>
</svg>
